<?xml version="1.0" standalone="no"?>
<!DOCTYPE svg PUBLIC "-//W3C//DTD SVG 20010904//EN"
        "http://www.w3.org/TR/2001/REC-SVG-20010904/DTD/svg10.dtd">
    <svg version="1.0" xmlns="http://www.w3.org/2000/svg"
         width="500pt" height="500pt" viewBox="0 0 500 500"
         preserveAspectRatio="xMidYMid meet">
        <rect width="100%" height="100%" fill="#bb9152"/>
    <g transform="translate(0.000000,500.000000) scale(0.100000,-0.100000)"
       fill="#000000" stroke="" >
        <path d="M2990 3226 c0 -3 9 -15 20 -26 19 -19 20 -33 20 -296 0 -271 -4 -306
 -34 -326 -6 -4 4 -8 23 -8 19 0 31 -3 28 -7 -4 -3 2 -12 13 -20 19 -14 20 -26
20 -270 0 -235 -2 -260 -20 -298 -26 -55 -64 -75 -138 -75 -70 0 -117 26 -144
80 -16 31 -18 67 -18 287 0 138 3 258 6 267 3 9 13 16 21 16 8 0 11 5 8 10 -7
11 -138 14 -148 3 -4 -3 2 -12 13 -20 26 -18 29 -117 4 -127 -9 -3 -67 -6
 -130 -6 l-114 0 0 285 c0 272 1 286 20 305 11 11 20 22 20 25 0 3 -31 5 -70 5
 -38 0 -70 -3 -70 -6 0 -3 7 -12 15 -20 13 -13 15 -61 15 -305 0 -276 -1 -290
 -20 -309 l-20 -20 184 0 184 0 4 -187 c3 -171 5 -192 25 -229 33 -62 80 -87
175 -92 127 -7 202 34 228 126 5 21 10 145 10 285 0 234 1 248 20 267 23 23
25 30 7 30 -8 0 -21 8 -30 18 -14 16 -17 43 -17 165 0 198 6 198 139 -1 54
 -82 110 -156 125 -165 14 -9 44 -17 66 -17 l42 0 -32 27 c-18 15 -74 90 -126
167 l-94 141 34 12 c87 29 121 81 114 169 -9 103 -64 134 -250 142 -70 3 -128
2 -128 -2z m209 -47 c65 -14 101 -53 101 -111 0 -81 -55 -128 -149 -128 l-51
0 0 125 0 125 25 0 c13 0 47 -5 74 -11z"/>
        <path d="M820 3022 c0 -4 8 -12 19 -19 11 -7 60 -124 136 -328 71 -190 121
 -311 126 -303 4 7 58 152 120 322 84 231 117 310 131 314 37 9 16 22 -37 22
 -57 0 -65 -5 -40 -24 13 -9 2 -45 -73 -248 -48 -130 -90 -234 -94 -230 -12 12
 -168 442 -168 463 0 10 5 19 10 19 6 0 10 5 10 10 0 6 -30 10 -70 10 -38 0
 -70 -3 -70 -8z"/>
        <path d="M1580 3025 c0 -4 7 -13 15 -21 13 -13 15 -61 15 -305 0 -276 -1 -290
 -20 -309 l-20 -20 131 0 130 0 -20 -26 c-44 -55 -35 -159 12 -152 18 2 23 11
27 48 8 62 24 86 66 100 64 21 124 -25 124 -95 0 -26 -30 -61 -80 -95 -22 -15
 -22 -16 -6 -68 11 -40 12 -54 3 -57 -7 -2 -32 -9 -57 -17 -38 -11 -45 -17 -45
 -38 0 -36 27 -37 159 -5 116 29 156 46 156 69 0 31 -26 38 -83 23 l-55 -15 -6
29 c-4 22 1 34 28 61 41 41 61 102 52 153 -8 42 -66 110 -101 119 -22 6 -25
12 -26 49 0 38 -1 40 -10 17 -23 -57 -32 -60 -166 -60 l-123 0 0 145 0 145 95
0 c84 0 96 -2 115 -22 l20 -22 0 70 -1 69 -20 -27 c-20 -27 -24 -28 -115 -28
l-94 0 0 125 0 125 108 0 c111 0 152 -12 152 -46 0 -8 5 -14 11 -14 6 0 9 19
7 48 l-3 47 -187 3 c-104 1 -188 0 -188 -3z"/>
        <path d="M3786 2714 c-81 -214 -126 -320 -140 -330 -19 -13 -16 -14 39 -14 46
0 56 3 47 12 -18 18 -15 34 31 160 l42 118 86 0 85 0 45 -121 c24 -67 45 -125
47 -129 2 -4 -4 -15 -13 -24 -15 -15 -10 -16 61 -16 l77 0 -25 19 c-19 15 -52
95 -139 330 -63 171 -116 311 -119 311 -3 0 -59 -142 -124 -316z m142 79 c18
 -49 32 -91 32 -94 0 -3 -31 -7 -70 -8 -38 -1 -70 1 -70 5 0 14 65 184 70 184
3 0 20 -39 38 -87z"/>
        <path d="M2237 2094 c-4 -4 -7 -28 -7 -53 0 -110 -115 -201 -253 -201 -95 1
 -161 37 -186 103 -6 16 -18 27 -29 27 -24 0 -188 -112 -225 -153 -15 -18 -37
 -49 -48 -70 -31 -59 -151 -407 -146 -421 3 -8 78 -37 168 -66 184 -59 176 -60
208 30 l18 55 11 -40 c6 -22 43 -168 82 -325 39 -157 75 -302 81 -322 8 -32
14 -38 37 -38 37 1 772 186 784 198 6 6 -22 134 -77 353 -47 189 -89 353 -92
364 -4 14 8 8 40 -22 26 -24 55 -43 65 -43 19 0 219 197 240 237 11 20 1 32
 -138 160 -169 156 -234 197 -330 212 -110 16 -195 22 -203 15z m278 -108 c31
 -15 102 -71 183 -146 l134 -123 -83 -83 -83 -83 -68 61 c-37 33 -71 64 -74 69
 -8 14 -40 11 -53 -5 -10 -12 9 -97 88 -408 55 -216 97 -396 93 -399 -10 -8
 -671 -173 -676 -168 -2 2 -34 123 -71 269 -37 146 -82 321 -99 389 -47 182
 -72 188 -126 32 -22 -64 -39 -100 -47 -97 -6 3 -56 19 -111 36 -99 32 -100 32
 -92 59 33 111 121 336 143 364 14 19 57 56 96 82 l71 48 21 -27 c11 -15 44
 -39 72 -54 46 -24 63 -27 147 -27 85 0 101 3 150 28 30 16 70 43 89 60 33 32
81 118 81 148 0 23 149 5 215 -25z"/>
    </g>
</svg>
